HIERARCHY
ROOT Hips
{
	OFFSET 0.000000 0.000000 0.000000
	CHANNELS 6 Xposition Yposition Zposition Xrotation Yrotation Zrotation
	JOINT LeftUpLeg_virtual
	{
		OFFSET 0.000000 0.000000 0.000000
		CHANNELS 3 Xrotation Yrotation Zrotation
		JOINT LeftUpLeg
		{
			OFFSET 11.394100 -6.187798 -0.413800
			CHANNELS 3 Xrotation Yrotation Zrotation
			JOINT LeftLeg
			{
				OFFSET 0.430247 -32.302673 3.732800
				CHANNELS 3 Xrotation Yrotation Zrotation
				JOINT LeftFoot
				{
					OFFSET -0.430247 -48.264931 -6.423300
					CHANNELS 3 Xrotation Yrotation Zrotation
					JOINT LeftToeBase
					{
						OFFSET 4.230900 -16.068199 23.438400
						CHANNELS 3 Xrotation Yrotation Zrotation
						JOINT LeftToe_End
						{
							OFFSET 4.510700 0.695400 19.974600
							CHANNELS 3 Xrotation Yrotation Zrotation
							End Site
							{
								OFFSET 0 0 0
							}
						}
					}
				}
			}
		}
	}
	JOINT RightUpLeg_virtual
	{
		OFFSET 0.000000 0.000000 0.000000
		CHANNELS 3 Xrotation Yrotation Zrotation
		JOINT RightUpLeg
		{
			OFFSET -11.333700 -6.187798 -0.413800
			CHANNELS 3 Xrotation Yrotation Zrotation
			JOINT RightLeg
			{
				OFFSET -0.430392 -32.302628 3.733000
				CHANNELS 3 Xrotation Yrotation Zrotation
				JOINT RightFoot
				{
					OFFSET 0.430392 -48.264973 -6.423500
					CHANNELS 3 Xrotation Yrotation Zrotation
					JOINT RightToeBase
					{
						OFFSET -4.230900 -16.068199 23.438400
						CHANNELS 3 Xrotation Yrotation Zrotation
						JOINT RightToe_End
						{
							OFFSET -4.510700 0.695400 19.974600
							CHANNELS 3 Xrotation Yrotation Zrotation
							End Site
							{
								OFFSET 0 0 0
							}
						}
					}
				}
			}
		}
	}
	JOINT Spine_virtual
	{
		OFFSET 0.000000 0.000000 0.000000
		CHANNELS 3 Xrotation Yrotation Zrotation
		JOINT Spine
		{
			OFFSET -0.002400 12.777504 0.315300
			CHANNELS 3 Xrotation Yrotation Zrotation
			JOINT Spine1
			{
				OFFSET -0.002067 5.816869 0.032633
				CHANNELS 3 Xrotation Yrotation Zrotation
				JOINT Spine1_split
				{
					OFFSET -0.002067 5.816869 0.032633
					CHANNELS 3 Xrotation Yrotation Zrotation
					JOINT Spine2
					{
						OFFSET -0.002067 5.816869 0.032633
						CHANNELS 3 Xrotation Yrotation Zrotation
						JOINT Neck_virtual
						{
							OFFSET 0.000000 0.000000 0.000000
							CHANNELS 3 Xrotation Yrotation Zrotation
							JOINT Neck
							{
								OFFSET -0.003700 21.199493 -0.826900
								CHANNELS 3 Xrotation Yrotation Zrotation
								JOINT Head
								{
									OFFSET 0.000000 20.442200 4.834800
									CHANNELS 3 Xrotation Yrotation Zrotation
									JOINT HeadTop_End
									{
										OFFSET 0.000000 34.668396 4.968400
										CHANNELS 3 Xrotation Yrotation Zrotation
										End Site
										{
											OFFSET 0 0 0
										}
									}
								}
							}
						}
						JOINT LeftShoulder_virtual
						{
							OFFSET 0.000000 0.000000 0.000000
							CHANNELS 3 Xrotation Yrotation Zrotation
							JOINT LeftShoulder
							{
								OFFSET 3.288150 8.794197 -1.372250
								CHANNELS 3 Xrotation Yrotation Zrotation
								JOINT LeftShoulder_split
								{
									OFFSET 3.288150 8.794197 -1.372250
									CHANNELS 3 Xrotation Yrotation Zrotation
									JOINT LeftArm
									{
										OFFSET 11.953299 -2.279007 -0.146200
										CHANNELS 3 Xrotation Yrotation Zrotation
										JOINT LeftForeArm
										{
											OFFSET 18.448900 0.000000 0.000000
											CHANNELS 3 Xrotation Yrotation Zrotation
											JOINT LeftHand
											{
												OFFSET 29.527798 0.000000 0.000000
												CHANNELS 3 Xrotation Yrotation Zrotation
												End Site
												{
													OFFSET 0 0 0
												}
											}
										}
									}
								}
							}
						}
						JOINT RightShoulder_virtual
						{
							OFFSET 0.000000 0.000000 0.000000
							CHANNELS 3 Xrotation Yrotation Zrotation
							JOINT RightShoulder
							{
								OFFSET -3.249400 8.794197 -1.372250
								CHANNELS 3 Xrotation Yrotation Zrotation
								JOINT RightShoulder_split
								{
									OFFSET -3.249400 8.794197 -1.372250
									CHANNELS 3 Xrotation Yrotation Zrotation
									JOINT RightArm
									{
										OFFSET -11.953299 -2.279007 -0.146200
										CHANNELS 3 Xrotation Yrotation Zrotation
										JOINT RightForeArm
										{
											OFFSET -18.448900 0.000000 0.000000
											CHANNELS 3 Xrotation Yrotation Zrotation
											JOINT RightHand
											{
												OFFSET -29.527802 0.000000 0.000000
												CHANNELS 3 Xrotation Yrotation Zrotation
												End Site
												{
													OFFSET 0 0 0
												}
											}
										}
									}
								}
							}
						}
					}
				}
			}
		}
	}
}
MOTION
Frames: 11
Frame Time: 0.03333333
-5.362541 79.545456 -120.778030 0.000000 0.000000 0.000000 164.435875 -70.504771 158.386582 -58.918264 -7.196722 31.255724 36.968307 -5.578538 1.310615 30.785558 4.254771 -9.297724 2.687981 2.562243 1.191796 0.000000 0.000000 0.000000 159.013088 -71.616419 153.451142 -51.604593 -0.948018 -22.141412 44.317406 -1.770174 -0.505840 11.703375 0.908768 8.477504 -7.897339 -0.367196 1.147686 0.000000 0.000000 0.000000 163.176607 -73.599263 157.451051 5.684370 7.990369 -0.715223 -0.412086 12.497084 2.835306 0.107160 2.817213 1.139534 0.000000 0.000000 0.000000 9.262512 14.469395 0.367592 5.085162 9.456676 -5.803097 -8.773444 16.721167 7.518805 0.000000 0.000000 0.000000 6.501427 15.125147 0.357442 6.736328 10.326529 -11.621705 10.873259 0.553144 -1.132657 -52.676912 -34.440904 -47.208174 22.094463 -86.360461 18.205097 0.000000 0.000000 0.000000 7.373323 15.011608 1.512706 -13.440510 2.177399 -3.079368 10.967463 0.108388 -6.741269 -91.910775 38.211333 109.666371 -8.014291 40.326827 4.704955 0.000000 0.000000 0.000000 
-3.085807 79.818932 -125.878479 0.000000 0.000000 0.000000 162.969406 -72.177956 157.154156 -59.200508 -5.995856 30.144142 36.810499 -5.207517 1.773968 28.754885 3.709207 -10.464239 1.024948 2.303556 0.926858 0.000000 0.000000 0.000000 160.297095 -72.462501 155.153143 -51.339981 -4.082763 -18.264957 49.843183 -4.385328 0.482911 8.069331 -1.818642 6.832681 -8.835534 -0.020874 0.765085 0.000000 0.000000 0.000000 164.480094 -72.841502 158.686850 6.290169 7.512325 -0.748109 -0.607813 11.685554 3.084477 0.173988 2.735453 1.033570 0.000000 0.000000 0.000000 9.366173 13.808883 0.498554 4.360847 10.178263 -6.733105 -10.206972 17.415825 8.122605 0.000000 0.000000 0.000000 6.591949 14.318780 0.617998 6.268435 9.893216 -11.216740 11.775138 3.460340 -1.778111 -52.784815 -34.712295 -47.824353 27.156084 -87.022901 23.010709 0.000000 0.000000 0.000000 7.375559 14.208312 1.678451 -13.388791 1.306159 -3.572917 11.222391 -0.245818 -7.820910 -92.345073 39.476287 110.149689 -7.794783 39.901863 4.521815 0.000000 0.000000 0.000000 
-1.349297 79.851692 -129.092514 0.000000 0.000000 0.000000 160.945990 -74.241697 155.190162 -61.180395 -5.382622 28.764607 39.431020 -4.842059 2.017661 25.713622 3.318547 -10.970872 -1.405788 2.139551 0.290318 0.000000 0.000000 0.000000 161.473363 -73.141716 156.524918 -50.263079 -6.174847 -15.245621 53.098953 -5.948396 0.779070 4.164554 -3.781084 6.184646 -9.390478 0.441401 0.449258 0.000000 0.000000 0.000000 164.892651 -72.274917 159.091334 6.649199 7.437411 -0.616014 -0.814739 11.091378 3.234730 0.090244 2.384000 1.013484 0.000000 0.000000 0.000000 9.596616 13.339541 0.517534 3.640413 10.577782 -7.678793 -11.269947 17.977116 8.220494 0.000000 0.000000 0.000000 6.698932 13.727773 0.735819 5.829581 9.699109 -11.039148 12.349137 5.933516 -1.772936 -53.269690 -34.892947 -48.552813 24.840667 -87.035550 20.420263 0.000000 0.000000 0.000000 7.453610 13.612556 1.723156 -13.347207 0.687238 -3.988068 10.996321 -0.948400 -8.387116 -92.794390 41.018482 110.567833 -7.427289 39.756550 4.247566 0.000000 0.000000 0.000000 
-0.521560 79.793587 -130.752335 0.000000 0.000000 0.000000 158.243558 -76.171226 152.477198 -63.814833 -4.698872 28.083337 42.862183 -4.404926 1.777346 23.201727 3.396756 -10.665084 -2.029358 2.191734 -0.987774 0.000000 0.000000 0.000000 161.618013 -73.703922 156.627453 -49.058599 -7.130094 -13.627944 53.412755 -6.252086 0.397141 0.830694 -4.732947 6.174146 -8.480269 0.862777 0.603236 0.000000 0.000000 0.000000 164.661135 -72.140130 158.975754 6.839322 7.648873 -0.519347 -0.949519 10.700271 3.249572 -0.083878 1.799333 0.937488 0.000000 0.000000 0.000000 9.772908 13.053502 0.459712 2.883270 10.698161 -8.395350 -11.672975 18.358353 7.957514 0.000000 0.000000 0.000000 6.804505 13.331812 0.712593 5.440276 9.879847 -10.811472 12.229458 7.826015 -1.302020 -53.937157 -34.839443 -49.318563 17.500137 -86.325764 12.816412 0.000000 0.000000 0.000000 7.551682 13.214763 1.658553 -13.313199 0.197673 -4.259362 10.508154 -1.408416 -8.863906 -93.474957 42.683471 111.140674 -6.921224 39.356452 3.917614 0.000000 0.000000 0.000000 
-0.388314 79.865494 -131.305374 0.000000 0.000000 0.000000 156.703364 -77.127644 150.967016 -65.808354 -3.556070 28.544638 44.840158 -4.211900 1.195890 21.903028 3.707760 -10.151281 -0.769632 2.357093 -2.362838 0.000000 0.000000 0.000000 161.952897 -73.868352 156.947912 -48.534624 -7.006588 -13.599134 52.540332 -5.427830 -0.146618 -1.266954 -4.537383 6.272873 -5.809242 1.101166 1.250513 0.000000 0.000000 0.000000 164.515966 -72.282628 159.054178 7.009415 7.936237 -0.578005 -0.954665 10.493337 3.192697 -0.179364 1.284756 0.776343 0.000000 0.000000 0.000000 9.767677 12.900317 0.401873 2.248925 10.615432 -8.781015 -11.376021 18.489022 7.499380 0.000000 0.000000 0.000000 6.867545 13.092409 0.628025 5.119583 10.354462 -10.377789 11.347914 8.811339 -0.944585 -54.473327 -34.646210 -49.944652 12.608584 -85.216725 7.690485 0.000000 0.000000 0.000000 7.581158 12.993999 1.574730 -13.316661 -0.302043 -4.423094 9.907385 -1.528182 -9.140781 -94.263632 44.271828 111.961499 -6.356360 38.504539 3.629562 0.000000 0.000000 0.000000 
-0.805156 80.064789 -131.117142 0.000000 0.000000 0.000000 156.927175 -77.182244 151.324098 -66.108452 -1.830846 29.861246 44.394560 -4.125181 0.539198 21.556630 4.173223 -9.490643 0.943773 2.470717 -3.375544 0.000000 0.000000 0.000000 161.668542 -73.703670 156.597878 -48.846101 -6.193806 -14.737620 51.926889 -3.867730 -0.460660 -1.809943 -3.631883 6.557935 -2.899216 1.127275 2.077223 0.000000 0.000000 0.000000 164.387436 -72.551287 159.122685 7.216074 8.091320 -0.862124 -0.852692 10.409298 3.120429 -0.209975 0.980403 0.661857 0.000000 0.000000 0.000000 9.558202 12.818738 0.409086 1.818556 10.249791 -8.766029 -10.494144 18.136012 7.040346 0.000000 0.000000 0.000000 6.845134 12.962283 0.592587 4.901142 10.943374 -9.744091 9.892704 8.471398 -0.683962 -54.603240 -34.366520 -50.291742 11.271511 -84.297307 6.146535 0.000000 0.000000 0.000000 7.520820 12.889985 1.576404 -13.347259 -0.942968 -4.504556 9.375996 -1.267452 -9.506686 -94.693586 45.323862 112.766498 -5.857443 37.525128 3.473385 0.000000 0.000000 0.000000 
-1.363961 80.343277 -130.489090 0.000000 0.000000 0.000000 158.911140 -76.511383 153.686660 -65.080774 0.152930 31.353574 42.407951 -4.383925 0.179574 22.009902 4.290998 -8.829613 1.921316 2.437680 -3.490803 0.000000 0.000000 0.000000 161.503634 -73.520395 156.578125 -49.746552 -5.126509 -16.282281 52.184199 -2.210464 -0.456386 -0.971271 -2.423950 7.237997 -1.257157 0.826677 2.597612 0.000000 0.000000 0.000000 164.504874 -72.715403 159.437352 7.383002 8.012829 -1.329865 -0.722375 10.376253 3.094848 0.116089 0.957152 0.587019 0.000000 0.000000 0.000000 9.120197 12.772577 0.525180 1.647172 9.707934 -8.397602 -9.435440 17.371654 6.822615 0.000000 0.000000 0.000000 6.689755 12.884833 0.645111 4.809986 11.516367 -9.009152 8.385463 7.232615 -0.536029 -54.200024 -34.104320 -50.322754 12.749083 -83.882817 7.391011 0.000000 0.000000 0.000000 7.340691 12.858785 1.695669 -13.413993 -1.784098 -4.530481 9.107313 -0.566187 -10.049409 -94.438799 45.378363 113.213145 -5.552693 36.613560 3.473898 0.000000 0.000000 0.000000 
-1.665567 80.583191 -129.812592 0.000000 0.000000 0.000000 162.286073 -75.467990 157.590673 -63.401115 1.537696 32.277463 40.559507 -5.316843 0.232854 23.181228 3.633389 -8.411346 1.110692 2.240773 -2.467819 0.000000 0.000000 0.000000 162.596273 -73.390881 158.228845 -50.643244 -4.318831 -17.485790 53.301519 -0.859443 -0.293957 0.230957 -1.139290 8.081039 -1.340796 0.328227 2.742059 0.000000 0.000000 0.000000 164.846219 -72.743010 159.806469 7.502624 7.750910 -1.815144 -0.662581 10.382247 3.134531 0.402924 1.348565 0.592207 0.000000 0.000000 0.000000 8.622529 12.751952 0.726458 1.891695 8.999203 -7.819019 -8.525287 16.327449 6.884750 0.000000 0.000000 0.000000 6.382725 12.856947 0.782237 4.869081 11.999299 -8.474022 7.188778 5.326318 -0.422032 -53.170936 -34.038285 -49.828091 16.055364 -83.773923 10.393689 0.000000 0.000000 0.000000 7.040086 12.890728 1.941714 -13.525988 -2.702158 -4.591431 9.185286 0.311256 -10.630933 -93.620201 44.299275 113.287860 -5.499699 36.080799 3.587311 0.000000 0.000000 0.000000 
-1.575409 80.821213 -129.144684 0.000000 0.000000 0.000000 165.184573 -74.688897 161.099260 -61.926204 1.725386 32.071747 40.127710 -6.267216 0.547636 24.296817 2.865733 -7.484697 -0.585445 1.875380 -0.969903 0.000000 0.000000 0.000000 164.465095 -73.410982 160.907044 -51.023125 -4.098432 -17.971986 54.131677 -0.295603 -0.138700 0.710751 -0.356708 8.263067 -2.052735 -0.074551 2.634365 0.000000 0.000000 0.000000 165.076247 -72.643986 159.829008 7.565345 7.363068 -2.165661 -0.724487 10.408760 3.190544 0.456091 1.861508 0.573697 0.000000 0.000000 0.000000 8.210981 12.766418 0.920992 2.492417 8.171287 -7.193992 -7.960398 15.092787 7.183874 0.000000 0.000000 0.000000 5.982230 12.894991 0.909628 5.040183 12.331774 -8.310114 6.700402 3.693548 -0.053520 -51.755868 -34.293314 -48.797504 20.328699 -83.676033 14.263839 0.000000 0.000000 0.000000 6.712522 12.964952 2.187490 -13.637195 -3.559718 -4.724842 9.287137 1.123581 -11.180413 -92.786344 42.360478 113.281044 -5.650965 35.876743 3.734394 0.000000 0.000000 0.000000 
-1.202607 81.183304 -128.586517 0.000000 0.000000 0.000000 167.485049 -74.448024 163.977679 -61.007666 0.707943 30.827086 41.095090 -6.769537 0.958657 24.689935 2.529152 -5.885218 -1.721576 1.442196 0.329048 0.000000 0.000000 0.000000 167.028110 -73.436664 164.314694 -50.935251 -4.356814 -17.717511 53.774981 -0.675458 -0.039280 -0.316230 -0.205297 7.248916 -1.815236 -0.214969 2.386578 0.000000 0.000000 0.000000 164.913989 -72.461381 159.225397 7.525151 6.945704 -2.220357 -0.886367 10.516332 3.208224 0.282025 2.331056 0.582684 0.000000 0.000000 0.000000 7.975350 12.830398 1.009876 3.426301 7.356864 -6.719385 -7.700375 13.776647 7.530473 0.000000 0.000000 0.000000 5.595192 13.026552 0.922538 5.245599 12.395537 -8.680499 6.873607 2.771104 0.611844 -50.164748 -35.073199 -47.392883 24.188080 -83.323650 17.651910 0.000000 0.000000 0.000000 6.452422 13.101218 2.290396 -13.748431 -4.269438 -5.007843 9.398500 1.502466 -11.193580 -92.455032 40.412484 113.585780 -5.894352 35.849279 3.841379 0.000000 0.000000 0.000000 
-0.781038 81.657501 -128.149704 0.000000 0.000000 0.000000 168.910646 -74.861974 165.731863 -60.624315 -1.094671 28.817186 42.762250 -6.503272 1.226141 24.029324 2.865954 -4.026415 -2.188699 1.100437 1.037198 0.000000 0.000000 0.000000 169.155140 -73.321705 166.972717 -50.784601 -4.745201 -17.111246 52.386315 -1.258722 -0.120878 -1.756820 -0.170058 5.892078 -0.626691 -0.034548 2.129364 0.000000 0.000000 0.000000 164.546661 -72.404486 158.368372 7.471821 6.586829 -1.975114 -1.105883 10.730556 3.136659 -0.136923 2.600146 0.717614 0.000000 0.000000 0.000000 7.969037 12.966387 0.930516 4.503262 6.592336 -6.453270 -7.639935 12.446080 7.768470 0.000000 0.000000 0.000000 5.312287 13.264635 0.786748 5.439730 12.118846 -9.571249 7.430998 2.469711 1.384614 -48.643948 -36.300147 -45.872080 26.336289 -82.658157 19.306662 0.000000 0.000000 0.000000 6.359510 13.282269 2.181631 -13.831269 -4.762760 -5.435785 9.440015 1.462754 -10.716026 -92.731839 39.249207 114.227346 -6.092553 35.708386 3.860866 0.000000 0.000000 0.000000 
